# xmcd CD database file
#
# Track frame offsets:
#	150
#	16695
#	36625
#
# Disc length: 732 seconds
#
# Revision: 2
# Processed by: cddbd v1.5.2PL0 Copyright (c) Steve Scherf et al.
# Submitted via: CDex 1.51
#
DISCID=1c02da03
DTITLE=Luna Luna - Gibt es noch Liebe?
DYEAR=1994
DGENRE=Pop
TTITLE0=Gibt es noch Liebe?
TTITLE1=Küss mich! (Live)
TTITLE2=Nur Dich (Live)
EXTD=YEAR: 1994
EXTT0=
EXTT1=
EXTT2=
PLAYORDER=
